<svg width="30" height="30" viewBox="0 0 30 30" fill="none" xmlns="http://www.w3.org/2000/svg">
  <style>
    .brain-glow {
      animation: pulse 2s infinite alternate;
    }
    @keyframes pulse {
      from {
        filter: drop-shadow(0 0 1px #FF007F);
      }
      to {
        filter: drop-shadow(0 0 3px #FF007F);
      }
    }
  </style>
  <g class="brain-glow">
    <path d="M22.5 12.5C22.5 10.2909 20.7091 8.5 18.5 8.5C16.5911 8.5 15.0344 9.94032 14.6938 11.75M18.5 8.5C18.5 7.11929 17.3807 6 16 6C14.6193 6 13.5 7.11929 13.5 8.5C13.5 9.88071 14.6193 11 16 11C16.829 11 17.562 10.634 18.0679 10.0679M18.5 8.5V4.5C18.5 3.11929 17.3807 2 16 2C14.6193 2 13.5 3.11929 13.5 4.5V8.5M7.5 12.5C7.5 10.2909 9.29086 8.5 11.5 8.5C13.4089 8.5 14.9656 9.94032 15.3063 11.75M11.5 8.5C11.5 7.11929 12.6193 6 14 6C15.3807 6 16.5 7.11929 16.5 8.5C16.5 9.88071 15.3807 11 14 11C13.171 11 12.438 10.634 11.9321 10.0679M11.5 8.5V4.5C11.5 3.11929 12.6193 2 14 2C15.3807 2 16.5 3.11929 16.5 4.5V8.5M15 12V28M15 28C12.2386 28 10 25.7614 10 23C10 20.2386 12.2386 18 15 18M15 28C17.7614 28 20 25.7614 20 23C20 20.2386 17.7614 18 15 18" stroke="#FF007F" stroke-width="1.5" stroke-linecap="round" stroke-linejoin="round"/>
    <path d="M7.5 12.5H6C4.89543 12.5 4 13.3954 4 14.5V21.5C4 22.6046 4.89543 23.5 6 23.5H7.5C9.15685 23.5 10.5 22.1569 10.5 20.5V14.5C10.5 13.8213 10.229 13.1852 9.76518 12.7213C9.30137 12.2575 8.66522 12.5 7.5 12.5Z" stroke="#00FFFF" stroke-width="1.5"/>
    <path d="M22.5 12.5H24C25.1046 12.5 26 13.3954 26 14.5V21.5C26 22.6046 25.1046 23.5 24 23.5H22.5C20.8431 23.5 19.5 22.1569 19.5 20.5V14.5C19.5 13.8213 19.771 13.1852 20.2348 12.7213C20.6986 12.2575 21.3348 12.5 22.5 12.5Z" stroke="#00FFFF" stroke-width="1.5"/>
  </g>
</svg>
